{"title":"The.Book.of.Eli.2010.CAM-LU","uid":5288824,"size":416979630,"categoryP":"video","categoryS":"movies","magnet":"?xt=urn:btih:a550b8d588b47a320a5286ba0b68807bc3d57e11&amp;dn=The.Book.of.Eli.2010.CAM-LU&amp;tr=udp%3A%2F%2Ftracker.openbittorrent.com%3A80&amp;tr=udp%3A%2F%2Fopen.demonii.com%3A1337&amp;tr=udp%3A%2F%2Ftracker.coppersurfer.tk%3A6969&amp;tr=udp%3A%2F%2Fexodus.desync.com%3A6969","seeders":0,"leechers":0,"uploader":".BONE.","files":29,"time":1263826568,"description":"Plot\nA post-apocalyptic tale, in which a lone man fights his way across America in order to protect a sacred book that holds the secrets to saving humankind.\n\nDetails\nGeneral\nComplete name : The.Book.of.Eli.2010.CAM.LU.mp4\nFormat : MPEG-4\nFormat profile : Base Media\nCodec ID : isom\nFile size : 401 MiB\nDuration : 1h 48mn\nOverall bit rate : 518 Kbps\nEncoded date : UTC 2010-01-18 11:39:48\nTagged date : UTC 2010-01-18 11:39:48\n\nVideo\nID : 2\nFormat : AVC\nFormat/Info : Advanced Video Codec\nFormat profile : &lt;a class=&quot;__cf_email__&quot; href=&quot;/cdn-cgi/l/email-protection&quot; data-cfemail=&quot;a7e5c6d4c2cbcec9c2e7eb968994&quot;&gt;[email&amp;#160;protected]&lt;/a&gt;&lt;script cf-hash='f9e31' type=&quot;text/javascript&quot;&gt;\n/* &lt;![CDATA[ */!function(){try{var t=&quot;currentScript&quot;in document?document.currentScript:function(){for(var t=document.getElementsByTagName(&quot;script&quot;),e=t.length;e--;)if(t[e].getAttribute(&quot;cf-hash&quot;))return t[e]}();if(t&amp;&amp;t.previousSibling){var e,r,n,i,c=t.previousSibling,a=c.getAttribute(&quot;data-cfemail&quot;);if(a){for(e=&quot;&quot;,r=parseInt(a.substr(0,2),16),n=2;a.length-n;n+=2)i=parseInt(a.substr(n,2),16)^r,e+=String.fromCharCode(i);e=document.createTextNode(e),c.parentNode.replaceChild(e,c)}}}catch(u){}}();/* ]]&gt; */&lt;/script&gt;\nFormat settings, CABAC : No\nFormat settings, ReFrames : 1 frame\nCodec ID : avc1\nCodec ID/Info : Advanced Video Coding\nDuration : 1h 48mn\nBit rate mode : Variable\nBit rate : 384 Kbps\nWidth : 480 pixels\nHeight : 272 pixels\nDisplay aspect ratio : 16:9\nFrame rate mode : Constant\nFrame rate : 29.970 fps\nResolution : 24 bits\nColorimetry : 4:2:0\nScan type : Progressive\nBits/(Pixel*Frame) : 0.098\nStream size : 298 MiB (74%)\nWriting library : @6ElÃƒÂ¼RÃ‹Å“R\n\nAudio\nID : 1\nFormat : AAC\nFormat/Info : Advanced Audio Codec\nFormat version : Version 4\nFormat profile : LC\nFormat settings, SBR : No\nCodec ID : 40\nDuration : 1h 48mn\nBit rate mode : Constant\nBit rate : 128 Kbps\nChannel(s) : 2 channels\nChannel positions : L R\nSampling rate : 48.0 KHz\nResolution : 16 bits\nStream size : 99.1 MiB (25%)","torrent":{"xt":"urn:btih:a550b8d588b47a320a5286ba0b68807bc3d57e11","amp;dn":"The.Book.of.Eli.2010.CAM-LU","amp;tr":["udp%3A%2F%2Ftracker.openbittorrent.com%3A80","udp%3A%2F%2Fopen.demonii.com%3A1337","udp%3A%2F%2Ftracker.coppersurfer.tk%3A6969","udp%3A%2F%2Fexodus.desync.com%3A6969"],"infoHash":"a550b8d588b47a320a5286ba0b68807bc3d57e11","infoHashBuffer":{"type":"Buffer","data":[165,80,184,213,136,180,122,50,10,82,134,186,11,104,128,123,195,213,126,17]},"announce":[],"urlList":[]}}